<svg xmlns="http://www.w3.org/2000/svg" width="800" height="1200"><path fill="#63939e" stroke="#63939e" stroke-width="2" d="M563 516l167-122-189-246z"/><path fill="#64939e" stroke="#64939e" stroke-width="2" d="M730 394l88-268-277 22z"/><path fill="#5f8e95" stroke="#5f8e95" stroke-width="2" d="M541 148L177 461l386 55z"/><path fill="#5c8c91" stroke="#5c8c91" stroke-width="2" d="M849-41L457-28l84 176z"/><path fill="#58888a" stroke="#58888a" stroke-width="2" d="M161 223l16 238 364-313z"/><path fill="#568788" stroke="#568788" stroke-width="2" d="M457-28L161 223l380-75z"/><path fill="#6c9aab" stroke="#6c9aab" stroke-width="2" d="M563 516l243 236-76-358z"/><path fill="#6897a5" stroke="#6897a5" stroke-width="2" d="M256 847l358-109-51-222z"/><path fill="#61919a" stroke="#61919a" stroke-width="2" d="M818 126l31-167-308 189z"/><path fill="#6d9bae" stroke="#6d9bae" stroke-width="2" d="M614 738l192 14-243-236z"/><path fill="#6c9bad" stroke="#6c9bad" stroke-width="2" d="M730 394l462 3-374-271z"/><path fill="#6695a1" stroke="#6695a1" stroke-width="2" d="M818 126l286-174-255 7z"/><path fill="#467970" stroke="#467970" stroke-width="2" d="M-8-131l239 80 54-434z"/><path fill="#518280" stroke="#518280" stroke-width="2" d="M457-28L231-51l-70 274z"/><path fill="#719eb3" stroke="#719eb3" stroke-width="2" d="M614 738l-78 210 270-196z"/><path fill="#60909a" stroke="#60909a" stroke-width="2" d="M177 461l79 386 307-331z"/><path fill="#5e8e96" stroke="#5e8e96" stroke-width="2" d="M-134 820L55 940l201-93z"/><path fill="#538484" stroke="#538484" stroke-width="2" d="M161 223L-42 430l219 31z"/><path fill="#4d7f7a" stroke="#4d7f7a" stroke-width="2" d="M-132 147l90 283 203-207z"/><path fill="#6b99aa" stroke="#6b99aa" stroke-width="2" d="M256 847l280 101 78-210z"/><path fill="#729fb6" stroke="#729fb6" stroke-width="2" d="M806 752l386-355-462-3z"/><path fill="#709eb3" stroke="#709eb3" stroke-width="2" d="M1192 397l1-197-375-74z"/><path fill="#4d7f7a" stroke="#4d7f7a" stroke-width="2" d="M285-485L231-51l226 23z"/><path fill="#6b9aab" stroke="#6b9aab" stroke-width="2" d="M1193 200l-89-248-286 174z"/><path fill="#497b73" stroke="#497b73" stroke-width="2" d="M-8-131l-124 278 293 76z"/><path fill="#6a99a9" stroke="#6a99a9" stroke-width="2" d="M256 847l80 173 200-72z"/><path fill="#6694a1" stroke="#6694a1" stroke-width="2" d="M55 940l281 80-80-173z"/><path fill="#4b7d77" stroke="#4b7d77" stroke-width="2" d="M231-51L-8-131l169 354z"/><path fill="#58898b" stroke="#58898b" stroke-width="2" d="M605-413L457-28l392-13z"/><path fill="#62919b" stroke="#62919b" stroke-width="2" d="M1104-48L814-361l35 320z"/><path fill="#598a8d" stroke="#598a8d" stroke-width="2" d="M814-361l-209-52L849-41z"/><path fill="#7aa7c3" stroke="#7aa7c3" stroke-width="2" d="M806 752l413-30-27-325z"/><path fill="#7aa7c3" stroke="#7aa7c3" stroke-width="2" d="M1192 397l27 325-26-522z"/><path fill="#7ca9c7" stroke="#7ca9c7" stroke-width="2" d="M862 1091l357-369-413 30z"/><path fill="#76a3bd" stroke="#76a3bd" stroke-width="2" d="M862 1091l-56-339-270 196z"/><path fill="#5c8c91" stroke="#5c8c91" stroke-width="2" d="M-134 820l390 27-79-386z"/><path fill="#558687" stroke="#558687" stroke-width="2" d="M-134 820l311-359-219-31z"/><path fill="#78a6c0" stroke="#78a6c0" stroke-width="2" d="M619 1243l243-152-326-143z"/><path fill="#4f807d" stroke="#4f807d" stroke-width="2" d="M-382 490l248 330 92-390z"/><path fill="#4d7f7b" stroke="#4d7f7b" stroke-width="2" d="M605-413l-320-72L457-28z"/><path fill="#5a8b8f" stroke="#5a8b8f" stroke-width="2" d="M814-361l374 48-583-100z"/><path fill="#538584" stroke="#538584" stroke-width="2" d="M605-413l583 100-903-172z"/><path fill="#63929d" stroke="#63929d" stroke-width="2" d="M1104-48l84-265-374-48z"/><path fill="#6c9aac" stroke="#6c9aac" stroke-width="2" d="M1193 200l-5-513-84 265z"/><path fill="#74a2b8" stroke="#74a2b8" stroke-width="2" d="M1219 722l-31-1035 5 513z"/><path fill="#71a0b6" stroke="#71a0b6" stroke-width="2" d="M336 1020l283 223-83-295z"/><path fill="#72a0b6" stroke="#72a0b6" stroke-width="2" d="M282 1318l337-75-283-223z"/><path fill="#497b74" stroke="#497b74" stroke-width="2" d="M-132 147l-250 343 340-60z"/><path fill="#3f7364" stroke="#3f7364" stroke-width="2" d="M-312-88l-16 158 196 77z"/><path fill="#417467" stroke="#417467" stroke-width="2" d="M-312-88l180 235L-8-131z"/><path fill="#43766b" stroke="#43766b" stroke-width="2" d="M-328 70l-54 420 250-343z"/><path fill="#3f7365" stroke="#3f7365" stroke-width="2" d="M-328 70l16-158-70 578z"/><path fill="#3c7061" stroke="#3c7061" stroke-width="2" d="M-80-431L-312-88l304-43z"/><path fill="#7fabca" stroke="#7fabca" stroke-width="2" d="M619 1243l217 22 26-174z"/><path fill="#83afd3" stroke="#83afd3" stroke-width="2" d="M862 1091l338 30 19-399z"/><path fill="#3f7466" stroke="#3f7466" stroke-width="2" d="M285-485l-365 54 72 300z"/><path fill="#4d7f7b" stroke="#4d7f7b" stroke-width="2" d="M-382 490l-8 210 256 120z"/><path fill="#6795a3" stroke="#6795a3" stroke-width="2" d="M-121 1268l403 50L55 940z"/><path fill="#86b2d8" stroke="#86b2d8" stroke-width="2" d="M1097 1221l103-100-338-30z"/><path fill="#81aed0" stroke="#81aed0" stroke-width="2" d="M619 1243l137 408 80-386z"/><path fill="#6998a8" stroke="#6998a8" stroke-width="2" d="M55 940l227 378 54-298z"/><path fill="#5d8e95" stroke="#5d8e95" stroke-width="2" d="M-121 1268L55 940l-189-120z"/><path fill="#84afd3" stroke="#84afd3" stroke-width="2" d="M836 1265l261-44-235-130z"/><path fill="#59898d" stroke="#59898d" stroke-width="2" d="M-411 987l290 281-13-448z"/><path fill="#366b58" stroke="#366b58" stroke-width="2" d="M-80-431l-185-59-47 402z"/><path fill="#3b6f5e" stroke="#3b6f5e" stroke-width="2" d="M-312-88l47-402-117 980z"/><path fill="#3a6f5d" stroke="#3a6f5d" stroke-width="2" d="M285-485l-550-5 185 59z"/><path fill="#518380" stroke="#518380" stroke-width="2" d="M-390 700l-21 287 277-167z"/><path fill="#4b7e78" stroke="#4b7e78" stroke-width="2" d="M-382 490l-29 497 21-287z"/><path fill="#6d9cae" stroke="#6d9cae" stroke-width="2" d="M-121 1268l346 274 57-224z"/><path fill="#7ba7c4" stroke="#7ba7c4" stroke-width="2" d="M282 1318l320 346 17-421z"/><path fill="#8ab6df" stroke="#8ab6df" stroke-width="2" d="M836 1265l272 348-11-392z"/><path fill="#598a8d" stroke="#598a8d" stroke-width="2" d="M-411 987l17 239 273 42z"/><path fill="#6c9bac" stroke="#6c9bac" stroke-width="2" d="M-121 1268l8 430 338-156z"/><path fill="#79a6c1" stroke="#79a6c1" stroke-width="2" d="M225 1542l377 122-320-346z"/><path fill="#82afd2" stroke="#82afd2" stroke-width="2" d="M602 1664l154-13-137-408z"/><path fill="#8db9e4" stroke="#8db9e4" stroke-width="2" d="M1097 1221l11 392 92-492z"/><path fill="#8ab6df" stroke="#8ab6df" stroke-width="2" d="M756 1651l352-38-272-348z"/><path fill="#609098" stroke="#609098" stroke-width="2" d="M-394 1226l129 349 144-307z"/><path fill="#77a5bf" stroke="#77a5bf" stroke-width="2" d="M225 1542l-338 156 715-34z"/><path fill="#6796a4" stroke="#6796a4" stroke-width="2" d="M-265 1575l152 123-8-430z"/></svg>