<svg xmlns="http://www.w3.org/2000/svg" width="1440" height="1440"><path d="M652,776L453,695L523,827Z" fill="#89cfc1" stroke="#89cfc1" stroke-width="1.51"/><path d="M652,776L590,573L453,695Z" fill="#8ed2bf" stroke="#8ed2bf" stroke-width="1.51"/><path d="M453,695L390,861L523,827Z" fill="#8fd1c0" stroke="#8fd1c0" stroke-width="1.51"/><path d="M453,695L315,698L390,861Z" fill="#97d5c0" stroke="#97d5c0" stroke-width="1.51"/><path d="M348,502L315,698L453,695Z" fill="#a1dabd" stroke="#a1dabd" stroke-width="1.51"/><path d="M652,776L837,742L590,573Z" fill="#80cec2" stroke="#80cec2" stroke-width="1.51"/><path d="M775,915L837,742L652,776Z" fill="#72c6c8" stroke="#72c6c8" stroke-width="1.51"/><path d="M677,1027L775,915L652,776Z" fill="#6fc3c9" stroke="#6fc3c9" stroke-width="1.51"/><path d="M677,1027L652,776L523,827Z" fill="#7bc7c6" stroke="#7bc7c6" stroke-width="1.51"/><path d="M590,573L348,502L453,695Z" fill="#9ed9b9" stroke="#9ed9b9" stroke-width="1.51"/><path d="M837,742L712,477L590,573Z" fill="#87d0c1" stroke="#87d0c1" stroke-width="1.51"/><path d="M609,366L348,502L590,573Z" fill="#a3dbb7" stroke="#a3dbb7" stroke-width="1.51"/><path d="M513,1126L677,1027L523,827Z" fill="#77c3c6" stroke="#77c3c6" stroke-width="1.51"/><path d="M712,477L638,409L590,573Z" fill="#98d6bb" stroke="#98d6bb" stroke-width="1.51"/><path d="M689,246L609,366L638,409Z" fill="#a2dabf" stroke="#a2dabf" stroke-width="1.51"/><path d="M638,409L609,366L590,573Z" fill="#9dd8ba" stroke="#9dd8ba" stroke-width="1.51"/><path d="M775,915L852,963L837,742Z" fill="#68bfcc" stroke="#68bfcc" stroke-width="1.51"/><path d="M677,1027L852,963L775,915Z" fill="#63bdcd" stroke="#63bdcd" stroke-width="1.51"/><path d="M315,698L169,834L390,861Z" fill="#9bd5c5" stroke="#9bd5c5" stroke-width="1.51"/><path d="M390,861L513,1126L523,827Z" fill="#84c9c4" stroke="#84c9c4" stroke-width="1.51"/><path d="M133,718L169,834L315,698Z" fill="#a4dac6" stroke="#a4dac6" stroke-width="1.51"/><path d="M331,1156L513,1126L390,861Z" fill="#84c3c3" stroke="#84c3c3" stroke-width="1.51"/><path d="M875,1262L987,1016L852,963Z" fill="#50aecd" stroke="#50aecd" stroke-width="1.51"/><path d="M837,742L889,477L712,477Z" fill="#84ccc3" stroke="#84ccc3" stroke-width="1.51"/><path d="M712,477L689,246L638,409Z" fill="#9dd8be" stroke="#9dd8be" stroke-width="1.51"/><path d="M916,409L889,477L1038,501Z" fill="#84c9c3" stroke="#84c9c3" stroke-width="1.51"/><path d="M133,490L133,718L315,698Z" fill="#addfc3" stroke="#addfc3" stroke-width="1.51"/><path d="M889,477L916,409L712,477Z" fill="#8dcfc1" stroke="#8dcfc1" stroke-width="1.51"/><path d="M1075,653L889,477L837,742Z" fill="#75c4c8" stroke="#75c4c8" stroke-width="1.51"/><path d="M211,341L133,490L348,502Z" fill="#bae4bd" stroke="#bae4bd" stroke-width="1.51"/><path d="M348,502L133,490L315,698Z" fill="#aedfbf" stroke="#aedfbf" stroke-width="1.51"/><path d="M220,1079L331,1156L390,861Z" fill="#8cc7c7" stroke="#8cc7c7" stroke-width="1.51"/><path d="M-75,889L220,1079L169,834Z" fill="#9dd2d0" stroke="#9dd2d0" stroke-width="1.51"/><path d="M169,834L220,1079L390,861Z" fill="#96d0c9" stroke="#96d0c9" stroke-width="1.51"/><path d="M609,366L307,286L348,502Z" fill="#b1e0b9" stroke="#b1e0b9" stroke-width="1.51"/><path d="M916,409L689,246L712,477Z" fill="#97d4c1" stroke="#97d4c1" stroke-width="1.51"/><path d="M513,1126L765,1232L677,1027Z" fill="#67b6c3" stroke="#67b6c3" stroke-width="1.51"/><path d="M331,1156L462,1214L513,1126Z" fill="#7cbabe" stroke="#7cbabe" stroke-width="1.51"/><path d="M403,178L307,286L609,366Z" fill="#b8e3bc" stroke="#b8e3bc" stroke-width="1.51"/><path d="M307,286L211,341L348,502Z" fill="#bbe5bd" stroke="#bbe5bd" stroke-width="1.51"/><path d="M852,963L1073,971L837,742Z" fill="#5db9cf" stroke="#5db9cf" stroke-width="1.51"/><path d="M765,1232L852,963L677,1027Z" fill="#5eb6c9" stroke="#5eb6c9" stroke-width="1.51"/><path d="M1073,971L1075,653L837,742Z" fill="#60bacd" stroke="#60bacd" stroke-width="1.51"/><path d="M1075,653L1038,501L889,477Z" fill="#79c3c6" stroke="#79c3c6" stroke-width="1.51"/><path d="M689,246L567,190L609,366Z" fill="#aaddc0" stroke="#aaddc0" stroke-width="1.51"/><path d="M133,718L19,699L169,834Z" fill="#a8dbca" stroke="#a8dbca" stroke-width="1.51"/><path d="M133,490L19,699L133,718Z" fill="#b1e1c7" stroke="#b1e1c7" stroke-width="1.51"/><path d="M-37,455L19,699L133,490Z" fill="#bbe4c7" stroke="#bbe4c7" stroke-width="1.51"/><path d="M462,1214L765,1232L513,1126Z" fill="#6cb3bf" stroke="#6cb3bf" stroke-width="1.51"/><path d="M567,190L403,178L609,366Z" fill="#b3e1be" stroke="#b3e1be" stroke-width="1.51"/><path d="M307,286L224,217L211,341Z" fill="#c5e8c2" stroke="#c5e8c2" stroke-width="1.51"/><path d="M987,1016L1073,971L852,963Z" fill="#4eb2d2" stroke="#4eb2d2" stroke-width="1.51"/><path d="M1094,1037L1073,971L987,1016Z" fill="#48aacf" stroke="#48aacf" stroke-width="1.51"/><path d="M331,1156L303,1321L462,1214Z" fill="#7eb6be" stroke="#7eb6be" stroke-width="1.51"/><path d="M914,1440L875,1262L765,1232Z" fill="#4b9fc2" stroke="#4b9fc2" stroke-width="1.51"/><path d="M220,1079L236,1239L331,1156Z" fill="#8abec4" stroke="#8abec4" stroke-width="1.51"/><path d="M58,1199L236,1239L220,1079Z" fill="#8ebfc6" stroke="#8ebfc6" stroke-width="1.51"/><path d="M211,341L-37,455L133,490Z" fill="#c1e7c2" stroke="#c1e7c2" stroke-width="1.51"/><path d="M403,178L224,217L307,286Z" fill="#c4e8c1" stroke="#c4e8c1" stroke-width="1.51"/><path d="M1073,971L1196,826L1075,653Z" fill="#57afc9" stroke="#57afc9" stroke-width="1.51"/><path d="M1051,1199L1094,1037L987,1016Z" fill="#43a5cc" stroke="#43a5cc" stroke-width="1.51"/><path d="M765,1232L875,1262L852,963Z" fill="#54acc8" stroke="#54acc8" stroke-width="1.51"/><path d="M553,1451L765,1232L462,1214Z" fill="#67aabc" stroke="#67aabc" stroke-width="1.51"/><path d="M1075,653L1219,504L1038,501Z" fill="#74bac2" stroke="#74bac2" stroke-width="1.51"/><path d="M1306,1011L1196,826L1073,971Z" fill="#46a4c9" stroke="#46a4c9" stroke-width="1.51"/><path d="M236,1239L303,1321L331,1156Z" fill="#84b8c0" stroke="#84b8c0" stroke-width="1.51"/><path d="M-90,404L-37,455L211,341Z" fill="#c6e9c7" stroke="#c6e9c7" stroke-width="1.51"/><path d="M-129,895L-75,889L-198,768Z" fill="#acdad7" stroke="#acdad7" stroke-width="1.51"/><path d="M19,699L-75,889L169,834Z" fill="#a8d9cf" stroke="#a8d9cf" stroke-width="1.51"/><path d="M236,1239L287,1456L303,1321Z" fill="#82b0bd" stroke="#82b0bd" stroke-width="1.51"/><path d="M1094,1037L1306,1011L1073,971Z" fill="#40a2ca" stroke="#40a2ca" stroke-width="1.51"/><path d="M875,1262L1051,1199L987,1016Z" fill="#43a5cb" stroke="#43a5cb" stroke-width="1.51"/><path d="M-62,1136L58,1199L220,1079Z" fill="#94c3cc" stroke="#94c3cc" stroke-width="1.51"/><path d="M1040,151L914,109L916,409Z" fill="#96cfcc" stroke="#96cfcc" stroke-width="1.51"/><path d="M916,409L914,109L689,246Z" fill="#9cd4c7" stroke="#9cd4c7" stroke-width="1.51"/><path d="M1306,649L1219,504L1075,653Z" fill="#6ab1bf" stroke="#6ab1bf" stroke-width="1.51"/><path d="M-75,889L-62,1136L220,1079Z" fill="#9acdd2" stroke="#9acdd2" stroke-width="1.51"/><path d="M-198,768L-75,889L19,699Z" fill="#aedcd3" stroke="#aedcd3" stroke-width="1.51"/><path d="M689,246L719,20L567,190Z" fill="#addfc5" stroke="#addfc5" stroke-width="1.51"/><path d="M567,190L363,-43L403,178Z" fill="#c0e6c2" stroke="#c0e6c2" stroke-width="1.51"/><path d="M1119,285L916,409L1038,501Z" fill="#86c5c5" stroke="#86c5c5" stroke-width="1.51"/><path d="M1250,398L1119,285L1038,501Z" fill="#80bdc0" stroke="#80bdc0" stroke-width="1.51"/><path d="M-275,609L-198,768L19,699Z" fill="#b7e3d3" stroke="#b7e3d3" stroke-width="1.51"/><path d="M-3,85L-90,404L211,341Z" fill="#ceecca" stroke="#ceecca" stroke-width="1.51"/><path d="M914,109L719,20L689,246Z" fill="#a6daca" stroke="#a6daca" stroke-width="1.51"/><path d="M403,178L363,-43L224,217Z" fill="#c7e9c5" stroke="#c7e9c5" stroke-width="1.51"/><path d="M287,1456L553,1451L303,1321Z" fill="#78a8b7" stroke="#78a8b7" stroke-width="1.51"/><path d="M303,1321L553,1451L462,1214Z" fill="#76acb8" stroke="#76acb8" stroke-width="1.51"/><path d="M875,1262L1035,1448L1051,1199Z" fill="#3b99c6" stroke="#3b99c6" stroke-width="1.51"/><path d="M-151,1033L-62,1136L-75,889Z" fill="#a1d0d7" stroke="#a1d0d7" stroke-width="1.51"/><path d="M1119,285L1040,151L916,409Z" fill="#8ec8c9" stroke="#8ec8c9" stroke-width="1.51"/><path d="M773,-211L616,-60L719,20Z" fill="#b4e1d0" stroke="#b4e1d0" stroke-width="1.51"/><path d="M1196,826L1306,649L1075,653Z" fill="#5dafc2" stroke="#5dafc2" stroke-width="1.51"/><path d="M1219,504L1250,398L1038,501Z" fill="#79b8bd" stroke="#79b8bd" stroke-width="1.51"/><path d="M1381,743L1306,649L1196,826Z" fill="#56a6bf" stroke="#56a6bf" stroke-width="1.51"/><path d="M-129,895L-151,1033L-75,889Z" fill="#a6d6d9" stroke="#a6d6d9" stroke-width="1.51"/><path d="M-275,609L19,699L-37,455Z" fill="#bde5cd" stroke="#bde5cd" stroke-width="1.51"/><path d="M1119,285L1193,36L1040,151Z" fill="#91c4c9" stroke="#91c4c9" stroke-width="1.51"/><path d="M1440,469L1250,398L1219,504Z" fill="#75aeb9" stroke="#75aeb9" stroke-width="1.51"/><path d="M-198,768L-151,1033L-129,895Z" fill="#aad8da" stroke="#aad8da" stroke-width="1.51"/><path d="M151,1533L236,1239L58,1199Z" fill="#89b3c2" stroke="#89b3c2" stroke-width="1.51"/><path d="M151,1533L287,1456L236,1239Z" fill="#83acbc" stroke="#83acbc" stroke-width="1.51"/><path d="M971,-100L719,20L914,109Z" fill="#a5d7d2" stroke="#a5d7d2" stroke-width="1.51"/><path d="M719,20L616,-60L567,190Z" fill="#b4e1c9" stroke="#b4e1c9" stroke-width="1.51"/><path d="M224,217L-3,85L211,341Z" fill="#ceecc8" stroke="#ceecc8" stroke-width="1.51"/><path d="M616,-60L363,-43L567,190Z" fill="#bde6c6" stroke="#bde6c6" stroke-width="1.51"/><path d="M774,1533L914,1440L765,1232Z" fill="#4b99be" stroke="#4b99be" stroke-width="1.51"/><path d="M1345,1247L1306,1011L1094,1037Z" fill="#3494c3" stroke="#3494c3" stroke-width="1.51"/><path d="M1345,1247L1094,1037L1051,1199Z" fill="#3696c3" stroke="#3696c3" stroke-width="1.51"/><path d="M1306,649L1440,469L1219,504Z" fill="#6caab9" stroke="#6caab9" stroke-width="1.51"/><path d="M1306,1011L1381,743L1196,826Z" fill="#4aa0c3" stroke="#4aa0c3" stroke-width="1.51"/><path d="M576,1578L774,1533L553,1451Z" fill="#5d98b3" stroke="#5d98b3" stroke-width="1.51"/><path d="M553,1451L774,1533L765,1232Z" fill="#589fbb" stroke="#589fbb" stroke-width="1.51"/><path d="M-90,404L-275,609L-37,455Z" fill="#c6e9cc" stroke="#c6e9cc" stroke-width="1.51"/><path d="M-198,768L-253,1237L-151,1033Z" fill="#a5d2dc" stroke="#a5d2dc" stroke-width="1.51"/><path d="M142,-79L-3,85L224,217Z" fill="#d5efcf" stroke="#d5efcf" stroke-width="1.51"/><path d="M-90,404L-251,371L-275,609Z" fill="#ccebce" stroke="#ccebce" stroke-width="1.51"/><path d="M348,1624L576,1578L553,1451Z" fill="#6b99ad" stroke="#6b99ad" stroke-width="1.51"/><path d="M1108,1626L1035,1448L914,1440Z" fill="#3188bb" stroke="#3188bb" stroke-width="1.51"/><path d="M914,1440L1035,1448L875,1262Z" fill="#3d95c2" stroke="#3d95c2" stroke-width="1.51"/><path d="M-164,123L-251,371L-90,404Z" fill="#d6efd2" stroke="#d6efd2" stroke-width="1.51"/><path d="M105,-184L142,-79L276,-290Z" fill="#def2d7" stroke="#def2d7" stroke-width="1.51"/><path d="M363,-43L142,-79L224,217Z" fill="#d1edcb" stroke="#d1edcb" stroke-width="1.51"/><path d="M-98,1506L151,1533L58,1199Z" fill="#8baec3" stroke="#8baec3" stroke-width="1.51"/><path d="M287,1456L348,1624L553,1451Z" fill="#73a0b1" stroke="#73a0b1" stroke-width="1.51"/><path d="M150,1574L151,1533L-98,1506Z" fill="#85a4bb" stroke="#85a4bb" stroke-width="1.51"/><path d="M1118,-21L971,-100L914,109Z" fill="#9dd0d5" stroke="#9dd0d5" stroke-width="1.51"/><path d="M1250,398L1301,192L1119,285Z" fill="#84b9c0" stroke="#84b9c0" stroke-width="1.51"/><path d="M1401,348L1301,192L1250,398Z" fill="#80b0bd" stroke="#80b0bd" stroke-width="1.51"/><path d="M1381,743L1440,469L1306,649Z" fill="#62a4ba" stroke="#62a4ba" stroke-width="1.51"/><path d="M142,-79L-35,20L-3,85Z" fill="#dbf1d5" stroke="#dbf1d5" stroke-width="1.51"/><path d="M-3,85L-164,123L-90,404Z" fill="#d9f0d2" stroke="#d9f0d2" stroke-width="1.51"/><path d="M1118,-21L914,109L1040,151Z" fill="#99ccd0" stroke="#99ccd0" stroke-width="1.51"/><path d="M616,-60L578,-284L363,-43Z" fill="#c4e8cd" stroke="#c4e8cd" stroke-width="1.51"/><path d="M150,1574L348,1624L287,1456Z" fill="#7c9fb2" stroke="#7c9fb2" stroke-width="1.51"/><path d="M1440,469L1401,348L1250,398Z" fill="#77abb8" stroke="#77abb8" stroke-width="1.51"/><path d="M1193,36L1118,-21L1040,151Z" fill="#95c6cd" stroke="#95c6cd" stroke-width="1.51"/><path d="M774,1533L844,1722L914,1440Z" fill="#458cb5" stroke="#458cb5" stroke-width="1.51"/><path d="M576,1578L703,1649L774,1533Z" fill="#5591af" stroke="#5591af" stroke-width="1.51"/><path d="M348,1624L703,1649L576,1578Z" fill="#6492a9" stroke="#6492a9" stroke-width="1.51"/><path d="M1301,192L1193,36L1119,285Z" fill="#8dbdc5" stroke="#8dbdc5" stroke-width="1.51"/><path d="M-35,20L-164,123L-3,85Z" fill="#ddf2d7" stroke="#ddf2d7" stroke-width="1.51"/><path d="M151,1533L150,1574L287,1456Z" fill="#81a3b7" stroke="#81a3b7" stroke-width="1.51"/><path d="M-98,1506L58,1199L-62,1136Z" fill="#91bacb" stroke="#91bacb" stroke-width="1.51"/><path d="M1306,1011L1540,853L1381,743Z" fill="#4597bf" stroke="#4597bf" stroke-width="1.51"/><path d="M1381,743L1602,563L1440,469Z" fill="#629db6" stroke="#629db6" stroke-width="1.51"/><path d="M1245,1423L1345,1247L1051,1199Z" fill="#2a88bd" stroke="#2a88bd" stroke-width="1.51"/><path d="M1345,1247L1418,1129L1306,1011Z" fill="#2e8abe" stroke="#2e8abe" stroke-width="1.51"/><path d="M-275,609L-253,1237L-198,768Z" fill="#b0dbdc" stroke="#b0dbdc" stroke-width="1.51"/><path d="M-151,1033L-253,1237L-62,1136Z" fill="#9dc7d5" stroke="#9dc7d5" stroke-width="1.51"/><path d="M858,-196L719,20L971,-100Z" fill="#aadad6" stroke="#aadad6" stroke-width="1.51"/><path d="M858,-196L773,-211L719,20Z" fill="#b0ded5" stroke="#b0ded5" stroke-width="1.51"/><path d="M1157,-260L858,-196L971,-100Z" fill="#a6d3dc" stroke="#a6d3dc" stroke-width="1.51"/><path d="M1345,1247L1379,1286L1418,1129Z" fill="#2481b9" stroke="#2481b9" stroke-width="1.51"/><path d="M1035,1448L1245,1423L1051,1199Z" fill="#2f8cbf" stroke="#2f8cbf" stroke-width="1.51"/><path d="M1108,1626L1245,1423L1035,1448Z" fill="#2880b7" stroke="#2880b7" stroke-width="1.51"/><path d="M1571,987L1540,853L1306,1011Z" fill="#398fc0" stroke="#398fc0" stroke-width="1.51"/><path d="M1418,1129L1571,987L1306,1011Z" fill="#328bbf" stroke="#328bbf" stroke-width="1.51"/><path d="M1245,1423L1379,1286L1345,1247Z" fill="#227fb7" stroke="#227fb7" stroke-width="1.51"/><path d="M1157,-260L578,-284L773,-211Z" fill="#b3dddb" stroke="#b3dddb" stroke-width="1.51"/><path d="M773,-211L578,-284L616,-60Z" fill="#bce4d3" stroke="#bce4d3" stroke-width="1.51"/><path d="M-35,20L-290,56L-164,123Z" fill="#e1f4db" stroke="#e1f4db" stroke-width="1.51"/><path d="M142,-79L105,-184L-35,20Z" fill="#ddf2d7" stroke="#ddf2d7" stroke-width="1.51"/><path d="M276,-290L142,-79L363,-43Z" fill="#d7efd2" stroke="#d7efd2" stroke-width="1.51"/><path d="M-253,1237L-98,1506L-62,1136Z" fill="#95bbcf" stroke="#95bbcf" stroke-width="1.51"/><path d="M703,1649L844,1722L774,1533Z" fill="#4b89ad" stroke="#4b89ad" stroke-width="1.51"/><path d="M348,1624L844,1722L703,1649Z" fill="#598ba7" stroke="#598ba7" stroke-width="1.51"/><path d="M1668,1105L1571,987L1418,1129Z" fill="#2d80b5" stroke="#2d80b5" stroke-width="1.51"/><path d="M578,-284L276,-290L363,-43Z" fill="#d0edd0" stroke="#d0edd0" stroke-width="1.51"/><path d="M844,1722L1108,1626L914,1440Z" fill="#3684b5" stroke="#3684b5" stroke-width="1.51"/><path d="M1245,1423L1453,1397L1379,1286Z" fill="#1e78b4" stroke="#1e78b4" stroke-width="1.51"/><path d="M1540,853L1602,563L1381,743Z" fill="#5296b7" stroke="#5296b7" stroke-width="1.51"/><path d="M1586,270L1526,180L1401,348Z" fill="#7da4b6" stroke="#7da4b6" stroke-width="1.51"/><path d="M1526,180L1424,53L1301,192Z" fill="#86acbf" stroke="#86acbf" stroke-width="1.51"/><path d="M1301,192L1424,53L1193,36Z" fill="#8cb6c5" stroke="#8cb6c5" stroke-width="1.51"/><path d="M1695,678L1602,563L1540,853Z" fill="#538ead" stroke="#538ead" stroke-width="1.51"/><path d="M-253,1237L-215,1471L-98,1506Z" fill="#94b3cd" stroke="#94b3cd" stroke-width="1.51"/><path d="M-144,-250L-290,56L-35,20Z" fill="#e6f5e0" stroke="#e6f5e0" stroke-width="1.51"/><path d="M-164,123L-290,56L-251,371Z" fill="#e0f3d9" stroke="#e0f3d9" stroke-width="1.51"/><path d="M-251,371L-290,56L-275,609Z" fill="#d7f0d5" stroke="#d7f0d5" stroke-width="1.51"/><path d="M8,-223L-35,20L105,-184Z" fill="#e2f4db" stroke="#e2f4db" stroke-width="1.51"/><path d="M-189,1659L47,1692L-98,1506Z" fill="#889fba" stroke="#889fba" stroke-width="1.51"/><path d="M-98,1506L47,1692L150,1574Z" fill="#85a0b8" stroke="#85a0b8" stroke-width="1.51"/><path d="M150,1574L47,1692L348,1624Z" fill="#7e9aae" stroke="#7e9aae" stroke-width="1.51"/><path d="M348,1624L47,1692L844,1722Z" fill="#6d90a3" stroke="#6d90a3" stroke-width="1.51"/><path d="M276,-290L8,-223L105,-184Z" fill="#e2f4db" stroke="#e2f4db" stroke-width="1.51"/><path d="M1526,180L1301,192L1401,348Z" fill="#82abbb" stroke="#82abbb" stroke-width="1.51"/><path d="M1240,-224L1157,-260L1118,-21Z" fill="#9cc5d4" stroke="#9cc5d4" stroke-width="1.51"/><path d="M1118,-21L1157,-260L971,-100Z" fill="#9fcbd6" stroke="#9fcbd6" stroke-width="1.51"/><path d="M1586,270L1401,348L1440,469Z" fill="#77a3b5" stroke="#77a3b5" stroke-width="1.51"/><path d="M1429,1697L1453,1397L1245,1423Z" fill="#146dae" stroke="#146dae" stroke-width="1.51"/><path d="M1379,1286L1668,1105L1418,1129Z" fill="#247db7" stroke="#247db7" stroke-width="1.51"/><path d="M1602,563L1586,270L1440,469Z" fill="#6f9cae" stroke="#6f9cae" stroke-width="1.51"/><path d="M1602,563L1695,678L1586,270Z" fill="#6792a6" stroke="#6792a6" stroke-width="1.51"/><path d="M1571,987L1695,678L1540,853Z" fill="#4589b2" stroke="#4589b2" stroke-width="1.51"/><path d="M1668,1105L1695,678L1571,987Z" fill="#3a81b0" stroke="#3a81b0" stroke-width="1.51"/><path d="M858,-196L1157,-260L773,-211Z" fill="#abd8dd" stroke="#abd8dd" stroke-width="1.51"/><path d="M1240,-224L1118,-21L1193,36Z" fill="#97c2d0" stroke="#97c2d0" stroke-width="1.51"/><path d="M1108,1626L1223,1682L1245,1423Z" fill="#2275ae" stroke="#2275ae" stroke-width="1.51"/><path d="M844,1722L1223,1682L1108,1626Z" fill="#2d76ab" stroke="#2d76ab" stroke-width="1.51"/><path d="M1424,53L1240,-224L1193,36Z" fill="#92bacb" stroke="#92bacb" stroke-width="1.51"/><path d="M1526,180L1680,2L1424,53Z" fill="#85a3ba" stroke="#85a3ba" stroke-width="1.51"/><path d="M1586,270L1593,185L1526,180Z" fill="#7f9fb3" stroke="#7f9fb3" stroke-width="1.51"/><path d="M1680,2L1593,185L1586,270Z" fill="#809bb1" stroke="#809bb1" stroke-width="1.51"/><path d="M1473,-161L1240,-224L1424,53Z" fill="#91b4ca" stroke="#91b4ca" stroke-width="1.51"/><path d="M1453,1397L1668,1105L1379,1286Z" fill="#1c76b2" stroke="#1c76b2" stroke-width="1.51"/><path d="M-215,1471L-189,1659L-98,1506Z" fill="#8ea7c4" stroke="#8ea7c4" stroke-width="1.51"/><path d="M-253,1237L-189,1659L-215,1471Z" fill="#94afcc" stroke="#94afcc" stroke-width="1.51"/><path d="M8,-223L-144,-250L-35,20Z" fill="#e6f5e0" stroke="#e6f5e0" stroke-width="1.51"/><path d="M276,-290L-144,-250L8,-223Z" fill="#e6f5df" stroke="#e6f5df" stroke-width="1.51"/><path d="M1453,1397L1714,1349L1668,1105Z" fill="#1b6ca8" stroke="#1b6ca8" stroke-width="1.51"/><path d="M1429,1697L1591,1462L1453,1397Z" fill="#0964a8" stroke="#0964a8" stroke-width="1.51"/><path d="M1680,2L1473,-161L1424,53Z" fill="#89a6c0" stroke="#89a6c0" stroke-width="1.51"/><path d="M1240,-224L1473,-161L1157,-260Z" fill="#99bcd2" stroke="#99bcd2" stroke-width="1.51"/><path d="M844,1722L1429,1697L1223,1682Z" fill="#246da5" stroke="#246da5" stroke-width="1.51"/><path d="M1223,1682L1429,1697L1245,1423Z" fill="#1a6ba8" stroke="#1a6ba8" stroke-width="1.51"/><path d="M1583,1709L1714,1349L1591,1462Z" fill="#095a9d" stroke="#095a9d" stroke-width="1.51"/><path d="M1591,1462L1714,1349L1453,1397Z" fill="#1265a6" stroke="#1265a6" stroke-width="1.51"/><path d="M1668,1105L1714,1349L1695,678Z" fill="#2e76ab" stroke="#2e76ab" stroke-width="1.51"/><path d="M1593,185L1680,2L1526,180Z" fill="#819db4" stroke="#819db4" stroke-width="1.51"/><path d="M1695,678L1680,2L1586,270Z" fill="#7595a8" stroke="#7595a8" stroke-width="1.51"/><path d="M1714,1349L1680,2L1695,678Z" fill="#5487a5" stroke="#5487a5" stroke-width="1.51"/><path d="M1680,2L1656,-142L1473,-161Z" fill="#89a1bd" stroke="#89a1bd" stroke-width="1.51"/><path d="M1473,-161L1656,-142L1157,-260Z" fill="#93b1cc" stroke="#93b1cc" stroke-width="1.51"/><path d="M844,1722L1583,1709L1429,1697Z" fill="#1b63a0" stroke="#1b63a0" stroke-width="1.51"/><path d="M1429,1697L1583,1709L1591,1462Z" fill="#0a599b" stroke="#0a599b" stroke-width="1.51"/></svg>