<?xml version="1.0" standalone="no"?><!-- Generator: Gravit.io --><svg xmlns="http://www.w3.org/2000/svg" xmlns:xlink="http://www.w3.org/1999/xlink" style="isolation:isolate" viewBox="-1587.8 208 1355.599 1116.296" width="1355.599" height="1116.296"><g id="TenOase - ICON"><g id="LOGO ICON"><g id="Group"><g id="Diamond"><path d=" M -1285.843 1015.615 L -898.519 893.194 C -897.843 892.953 -882.7 908.875 -882.69 909.023 L -1004.415 1297.043 L -1285.843 1015.615 Z  M -1242.049 1037.865 L -1200.51 1079.404 L -989.527 939.105 L -1242.049 1037.865 Z  M -1179.404 1100.51 L -1089.25 1190.664 L -968.325 979.046 L -1179.404 1100.51 Z  M -1068.164 1211.749 L -1026.645 1253.269 L -928.364 1000.268 L -1068.164 1211.749 Z  M -1285.843 1015.615 L -1313.075 1324.296 L -1004.415 1297.043 L -1285.843 1015.615 Z  M -1263.593 1059.409 L -1222.054 1100.948 L -1263.728 1213.805 L -1263.593 1059.409 Z  M -1200.948 1122.054 L -1110.794 1212.208 L -1262.241 1273.461 L -1200.948 1122.054 Z  M -1089.708 1233.294 L -1048.189 1274.813 L -1202.565 1274.968 L -1089.708 1233.294 Z " fill-rule="evenodd" fill="rgb(0,0,0)"/></g><g id="Diamond"><path d=" M -1024.3 451.946 L -872.106 936.933 C -871.806 937.779 -891.806 956.806 -891.992 956.819 L -1377.854 805.499 L -1024.3 451.946 Z  M -1052.32 506.896 L -1104.506 559.081 L -929.353 823.031 L -1052.32 506.896 Z  M -1131.02 585.596 L -1244.278 698.854 L -979.472 849.726 L -1131.02 585.596 Z  M -1270.768 725.344 L -1322.929 777.504 L -1006.191 899.869 L -1270.768 725.344 Z  M -1024.3 451.946 L -1411.035 418.789 L -1377.854 805.499 L -1024.3 451.946 Z  M -1079.25 479.966 L -1131.436 532.151 L -1272.73 480.282 L -1079.25 479.966 Z  M -1157.95 558.666 L -1271.209 671.924 L -1347.492 482.333 L -1157.95 558.666 Z  M -1297.698 698.414 L -1349.859 750.574 L -1349.567 557.12 L -1297.698 698.414 Z " fill-rule="evenodd" fill="rgb(0,0,0)"/></g></g><g id="Group"><g id="Diamond"><path d=" M -534.157 1015.615 L -921.481 893.194 C -922.157 892.953 -937.3 908.875 -937.31 909.023 L -815.585 1297.043 L -534.157 1015.615 Z  M -577.951 1037.865 L -619.49 1079.404 L -830.473 939.105 L -577.951 1037.865 Z  M -640.596 1100.51 L -730.75 1190.664 L -851.675 979.046 L -640.596 1100.51 Z  M -751.836 1211.749 L -793.355 1253.269 L -891.636 1000.268 L -751.836 1211.749 Z  M -534.157 1015.615 L -506.925 1324.296 L -815.585 1297.043 L -534.157 1015.615 Z  M -556.407 1059.409 L -597.946 1100.948 L -556.272 1213.805 L -556.407 1059.409 Z  M -619.052 1122.054 L -709.206 1212.208 L -557.759 1273.461 L -619.052 1122.054 Z  M -730.292 1233.294 L -771.811 1274.813 L -617.435 1274.968 L -730.292 1233.294 Z " fill-rule="evenodd" fill="rgb(0,0,0)"/></g><g id="Diamond"><path d=" M -795.7 451.946 L -947.894 936.933 C -948.194 937.779 -928.194 956.806 -928.008 956.819 L -442.146 805.499 L -795.7 451.946 Z  M -767.68 506.896 L -715.494 559.081 L -890.647 823.031 L -767.68 506.896 Z  M -688.98 585.596 L -575.722 698.854 L -840.528 849.726 L -688.98 585.596 Z  M -549.232 725.344 L -497.071 777.504 L -813.809 899.869 L -549.232 725.344 Z  M -795.7 451.946 L -408.965 418.789 L -442.146 805.499 L -795.7 451.946 Z  M -740.75 479.966 L -688.564 532.151 L -547.27 480.282 L -740.75 479.966 Z  M -662.05 558.666 L -548.791 671.924 L -472.508 482.333 L -662.05 558.666 Z  M -522.302 698.414 L -470.141 750.574 L -470.433 557.12 L -522.302 698.414 Z " fill-rule="evenodd" fill="rgb(0,0,0)"/></g></g></g></g></svg>